<?xml version="1.0" encoding="utf-8"?>
<!-- Generator: Adobe Illustrator 22.1.0, SVG Export Plug-In . SVG Version: 6.00 Build 0)  -->
<svg version="1.1" xmlns="http://www.w3.org/2000/svg" xmlns:xlink="http://www.w3.org/1999/xlink" x="0px" y="0px"
	 viewBox="0 0 732.8 313.8" style="enable-background:new 0 0 732.8 313.8;" xml:space="preserve">
<style type="text/css">
	.st0{display:none;}
	.st1{fill:#FFFFFF;}
</style>
<g id="Ebene_1">
</g>
<g id="Ebene_2">
</g>
<g id="Ebene_3" class="st0">
</g>
<g id="Logo">
	<g>
		<g>
			<path class="st1" d="M522.2,194c0,1.6-0.2,3.1-0.7,4.5c-0.5,1.4-1.2,2.6-2,3.7c-0.8,1.1-1.8,1.9-3,2.5s-2.4,0.9-3.8,0.9
				c-2,0-3.9-0.8-5.7-2.3c-1.8-1.5-3.1-3.4-4.1-5.8v-9c2.4-3.6,5.4-5.4,8.9-5.4c3.1,0,5.6,1,7.5,3
				C521.3,188.1,522.2,190.7,522.2,194 M541.5,194.1c0-3.8-0.6-7.4-1.8-10.7c-1.2-3.3-2.9-6.2-5-8.5c-2.1-2.4-4.7-4.3-7.6-5.6
				c-3-1.4-6.2-2-9.6-2c-4,0-7.3,0.8-10,2.3c-2.7,1.5-5,3.7-6.9,6.6v-7.8h-16.4v73.4H503v-28.9c1.5,2.8,3.7,5,6.5,6.5
				c2.8,1.5,6.1,2.2,9.8,2.2c3.2,0,6.1-0.7,8.8-2c2.7-1.4,5.1-3.3,7-5.7c2-2.4,3.5-5.3,4.7-8.7C540.9,201.7,541.5,198,541.5,194.1"
				/>
			<path class="st1" d="M82.4,241.9c-5.2,0-9.4-4.2-9.4-9.4c0-88.2,71.7-159.9,159.9-159.9c5.2,0,9.4,4.2,9.4,9.4s-4.2,9.4-9.4,9.4
				c-77.7,0-141,63.2-141,141C91.8,237.7,87.6,241.9,82.4,241.9z"/>
		</g>
		<rect x="281.3" y="168.2" class="st1" width="18.9" height="52.2"/>
		<rect x="281.3" y="148" class="st1" width="18.9" height="15.1"/>
		<g>
			<path class="st1" d="M609.9,241.8c3.1,1.3,6.4,1.9,9.7,1.9c2.6,0,5.2-0.4,7.6-1.2c2.4-0.8,4.7-1.9,6.7-3.4c2-1.5,3.8-3.3,5.2-5.4
				c1.5-2.1,2.6-4.4,3.4-7l17.7-58.5h-17.6l-8,36.2l-9.9-36.2h-19.4l19,52.2c-0.4,4.6-2.6,7-6.6,7c-2.1,0-4.7-0.6-7.7-1.7V241.8z"/>
			<path class="st1" d="M581.2,202.3c0,0.7-0.2,1.3-0.7,1.9c-0.5,0.6-1.1,1.2-1.8,1.7c-0.9,0.6-2,1.1-3.2,1.4
				c-1.2,0.4-2.4,0.5-3.5,0.5c-1.8,0-3.3-0.5-4.4-1.4c-1.2-0.9-1.7-2.1-1.7-3.6c0-1.7,0.8-3.1,2.3-4.3c1.5-1.1,3.4-1.7,5.8-1.7
				c1.1,0,2.2,0.1,3.6,0.4c1.3,0.3,2.5,0.6,3.7,1V202.3z M603.7,220.4v-15.9c-1.3-0.1-2.3-0.5-2.8-1.2c-0.5-0.7-0.8-1.9-0.8-3.7
				v-10.1c0-7.4-2.2-13-6.8-16.7c-4.5-3.7-10.9-5.6-19.3-5.6c-8.8,0-16.6,2.2-23.5,6.7l5.5,11.7c2.8-1.9,5.4-3.3,7.9-4.2
				c2.5-1,5.3-1.4,8.2-1.4c3.2,0,5.5,0.6,6.9,1.8c1.4,1.2,2.1,3,2.1,5.5v1.6c-2.8-1.3-6.3-2-10.5-2c-3.3,0-6.3,0.4-9.1,1.3
				c-2.7,0.9-5.1,2.1-7.1,3.7c-2,1.6-3.5,3.5-4.7,5.7c-1.1,2.2-1.7,4.6-1.7,7.2c0,2.4,0.5,4.6,1.4,6.6c0.9,2.1,2.2,3.8,3.8,5.3
				c1.6,1.5,3.6,2.7,5.8,3.5c2.2,0.9,4.7,1.3,7.2,1.3c3.4,0,6.7-0.8,9.7-2.3c3-1.6,5.7-3.8,8-6.8l0.4,1.9c0.5,2.4,1.7,4.2,3.4,5.4
				c1.8,1.2,4.3,1.8,7.7,1.8c1.1,0,2.3-0.1,3.6-0.2C600.7,221,602.2,220.8,603.7,220.4"/>
			<path class="st1" d="M445.7,206.3c0,4.9,1.4,8.6,4.1,11.2c2.7,2.6,6.6,3.9,11.6,3.9c2.5,0,5.2-0.3,8-0.9c2.8-0.6,5.3-1.4,7.6-2.5
				l-2.4-13.9c-0.8,0.5-1.7,0.8-2.6,1.1c-0.9,0.3-1.8,0.4-2.6,0.4c-3.2,0-4.9-2-4.9-6V148h-18.9V206.3z"/>
			<path class="st1" d="M349.1,200.2c-2.5,3.6-5.5,5.4-8.9,5.4c-3.1,0-5.6-1-7.5-3c-1.9-2-2.8-4.6-2.8-7.9c0-1.6,0.2-3.1,0.7-4.5
				c0.5-1.4,1.2-2.6,2-3.7c0.8-1.1,1.8-1.9,3-2.5c1.2-0.6,2.4-0.9,3.8-0.9c2,0,3.9,0.7,5.7,2.1c1.8,1.4,3.1,3.3,4.1,5.6V200.2z
				 M371.5,220.4v-15.9c-1.3-0.1-2.3-0.5-2.8-1.2c-0.5-0.7-0.8-1.9-0.8-3.7V148H349v28c-1.5-2.8-3.7-4.9-6.5-6.5
				c-2.8-1.5-5.9-2.3-9.3-2.3c-3.4,0-6.5,0.7-9.2,2c-2.8,1.4-5.2,3.2-7.2,5.7c-2,2.4-3.6,5.3-4.7,8.6c-1.1,3.3-1.7,6.9-1.7,10.7
				c0,4,0.6,7.6,1.8,11c1.2,3.3,2.9,6.2,5.1,8.6c2.2,2.4,4.8,4.3,7.8,5.6c3,1.3,6.3,2,9.9,2c3.4,0,6.7-0.7,9.7-2.2
				c3-1.5,5.5-3.8,7.2-6.9l0.4,1.9c1,4.8,4.7,7.2,11.1,7.2C365.6,221.4,368.2,221.1,371.5,220.4"/>
			<path class="st1" d="M251.8,190h-18.2c0.3-2.9,1.3-5.2,2.9-6.8c1.6-1.7,3.7-2.5,6.2-2.5c2.5,0,4.6,0.8,6.2,2.5
				C250.5,184.9,251.5,187.1,251.8,190 M271.6,194.3c0-3.6-0.6-7-1.8-10.3c-1.2-3.3-3-6.2-5.5-8.6c-2.4-2.5-5.4-4.5-9-6
				c-3.6-1.5-7.7-2.2-12.3-2.2c-4.7,0-8.8,0.7-12.4,2.2c-3.5,1.5-6.5,3.5-8.9,6c-2.4,2.5-4.2,5.5-5.5,8.8c-1.2,3.4-1.8,7-1.8,10.7
				c0,3.5,0.6,6.8,1.9,10c1.3,3.2,3.1,6,5.5,8.4c2.4,2.4,5.4,4.4,9,5.8c3.6,1.4,7.6,2.1,12.2,2.1c6.4,0,11.8-1.3,16.2-4
				c4.4-2.6,7.7-6.1,9.8-10.2l-16.2-3.7c-0.7,1.2-1.8,2.6-3.3,3.3c-1.8,0.9-3.8,1.5-5.9,1.5c-2.2,0-4.8-0.7-6.6-2
				c-1.8-1.3-3.3-3.9-3.3-7.1h37.5C271.5,198,271.6,195.3,271.6,194.3"/>
			<path class="st1" d="M204.9,186.1c0-1.9-0.2-4-0.5-6.2c-0.3-2.2-1.1-4.2-2.2-6.1c-1.1-1.9-2.8-3.5-5-4.7
				c-2.2-1.3-5.1-1.9-8.7-1.9c-3.7,0-7.1,0.7-10,2.2c-3,1.5-5.4,3.7-7.2,6.5v-28h-18.9v72.5h18.9v-29.3c0.5-1.1,1.1-2.1,1.8-3.1
				c0.7-0.9,1.5-1.7,2.3-2.3c0.8-0.6,1.7-1.1,2.5-1.5c0.8-0.4,1.5-0.5,2.1-0.5c1.7,0,3.2,0.6,4.3,1.7c1.2,1.2,1.7,3,1.7,5.6v29.4
				h18.9V186.1z"/>
			<path class="st1" d="M416.5,190h-18.2c0.3-2.9,1.3-5.2,2.9-6.8c1.6-1.7,3.7-2.5,6.2-2.5c2.5,0,4.6,0.8,6.2,2.5
				C415.2,184.9,416.2,187.1,416.5,190 M436.3,194.3c0-3.6-0.6-7-1.8-10.3c-1.2-3.3-3-6.2-5.5-8.6c-2.4-2.5-5.4-4.5-9-6
				c-3.6-1.5-7.7-2.2-12.3-2.2c-4.7,0-8.8,0.7-12.4,2.2c-3.5,1.5-6.5,3.5-8.9,6c-2.4,2.5-4.2,5.5-5.5,8.8c-1.2,3.4-1.8,7-1.8,10.7
				c0,3.5,0.6,6.8,1.9,10c1.3,3.2,3.1,6,5.5,8.4c2.4,2.4,5.4,4.4,9,5.8c3.6,1.4,7.6,2.1,12.2,2.1c6.4,0,11.8-1.3,16.2-4
				c4.4-2.6,7.7-6.1,9.8-10.2l-16.2-3.7c-0.7,1.2-1.8,2.6-3.3,3.3c-1.8,0.9-3.8,1.5-5.9,1.5c-2.2,0-4.8-0.7-6.6-2
				c-1.8-1.3-3.3-3.9-3.3-7.1h37.5C436.2,198,436.3,195.3,436.3,194.3"/>
			<path class="st1" d="M522.2,194c0,1.6-0.2,3.1-0.7,4.5c-0.5,1.4-1.2,2.6-2,3.7c-0.8,1.1-1.8,1.9-3,2.5s-2.4,0.9-3.8,0.9
				c-2,0-3.9-0.8-5.7-2.3c-1.8-1.5-3.1-3.4-4.1-5.8v-9c2.4-3.6,5.4-5.4,8.9-5.4c3.1,0,5.6,1,7.5,3
				C521.3,188.1,522.2,190.7,522.2,194 M541.5,194.1c0-3.8-0.6-7.4-1.8-10.7c-1.2-3.3-2.9-6.2-5-8.5c-2.1-2.4-4.7-4.3-7.6-5.6
				c-3-1.4-6.2-2-9.6-2c-4,0-7.3,0.8-10,2.3c-2.7,1.5-5,3.7-6.9,6.6v-7.8h-16.4v73.4H503v-28.9c1.5,2.8,3.7,5,6.5,6.5
				c2.8,1.5,6.1,2.2,9.8,2.2c3.2,0,6.1-0.7,8.8-2c2.7-1.4,5.1-3.3,7-5.7c2-2.4,3.5-5.3,4.7-8.7C540.9,201.7,541.5,198,541.5,194.1"
				/>
		</g>
	</g>
</g>
</svg>
